<svg width="304" height="424" viewBox="0 0 304 424" fill="none" xmlns="http://www.w3.org/2000/svg" role="img" aria-labelledby="title desc">
  <title id="title">React Nepali Date Picker Demo</title>
  <desc id="desc">A Nepali date picker input with an open calendar for Jestha 2083.</desc>
  <rect width="304" height="340" fill="#f7f9fb"/>
  <text x="4" y="18" fill="#1f2933" font-family="Arial, Helvetica, sans-serif" font-size="16" font-weight="700">Pick date</text>

  <rect x="4.5" y="31.5" width="299" height="43" rx="7.5" fill="#ffffff" stroke="#d6dde4"/>
  <rect x="19" y="47" width="13" height="13" rx="1.5" fill="#ffffff" stroke="#7b8794" stroke-width="1.2"/>
  <path d="M22 45.5V49M29 45.5V49M19 52H32" stroke="#7b8794" stroke-width="1.2" stroke-linecap="round"/>
  <text x="55" y="58" fill="#a0a9b4" font-family="Arial, Helvetica, sans-serif" font-size="15" font-weight="600">Pick date</text>
  <path d="M280 51L284 55L288 51" stroke="#6f7b85" stroke-width="1.5" stroke-linecap="round" stroke-linejoin="round"/>

  <rect x="4.5" y="82.5" width="299" height="337" rx="7.5" fill="#ffffff" stroke="#d6dde4"/>
  <path d="M36 104L31 109L36 114" stroke="#2f3a45" stroke-width="1.7" stroke-linecap="round" stroke-linejoin="round"/>
  <text x="123" y="115" fill="#1f2933" font-family="Arial, Helvetica, sans-serif" font-size="16" font-weight="700">जेठ २०८३</text>
  <path d="M272 104L277 109L272 114" stroke="#2f3a45" stroke-width="1.7" stroke-linecap="round" stroke-linejoin="round"/>

  <g font-family="Arial, Helvetica, sans-serif" font-size="14" font-weight="700" text-anchor="middle">
    <text x="34" y="153" fill="#7b8794">आ</text>
    <text x="74" y="153" fill="#7b8794">सो</text>
    <text x="114" y="153" fill="#7b8794">मं</text>
    <text x="154" y="153" fill="#7b8794">बु</text>
    <text x="194" y="153" fill="#7b8794">बि</text>
    <text x="234" y="153" fill="#7b8794">शु</text>
    <text x="274" y="153" fill="#7b8794">श</text>
  </g>

  <g font-family="Arial, Helvetica, sans-serif" font-size="13" font-weight="700" text-anchor="middle">
    <text x="34" y="191" fill="#c8d0d8">२७</text>
    <text x="74" y="191" fill="#c8d0d8">२८</text>
    <text x="114" y="191" fill="#c8d0d8">२९</text>
    <text x="154" y="191" fill="#c8d0d8">३०</text>
    <text x="194" y="191" fill="#c8d0d8">३१</text>
    <text x="234" y="191" fill="#111827">१</text>
    <text x="274" y="191" fill="#111827">२</text>

    <text x="34" y="231" fill="#111827">३</text>
    <text x="74" y="231" fill="#111827">४</text>
    <text x="114" y="231" fill="#111827">५</text>
    <text x="154" y="231" fill="#111827">६</text>
    <text x="194" y="231" fill="#111827">७</text>
    <text x="234" y="231" fill="#111827">८</text>
    <text x="274" y="231" fill="#111827">९</text>

    <text x="34" y="271" fill="#111827">१०</text>
    <text x="74" y="271" fill="#111827">११</text>
    <text x="114" y="271" fill="#111827">१२</text>
    <text x="154" y="271" fill="#111827">१३</text>
    <text x="194" y="271" fill="#111827">१४</text>
    <text x="234" y="271" fill="#111827">१५</text>
    <text x="274" y="271" fill="#111827">१६</text>

    <text x="34" y="310" fill="#111827">१७</text>
    <text x="74" y="310" fill="#111827">१८</text>
    <text x="114" y="310" fill="#111827">१९</text>
    <text x="154" y="310" fill="#111827">२०</text>
    <text x="194" y="310" fill="#111827">२१</text>
    <text x="234" y="310" fill="#111827">२२</text>
    <text x="274" y="310" fill="#111827">२३</text>

    <text x="34" y="349" fill="#111827">२४</text>
    <text x="74" y="349" fill="#111827">२५</text>
    <text x="114" y="349" fill="#111827">२६</text>
    <text x="154" y="349" fill="#111827">२७</text>
    <text x="194" y="349" fill="#111827">२८</text>
    <text x="234" y="349" fill="#111827">२९</text>
    <text x="274" y="349" fill="#111827">३०</text>

    <text x="34" y="389" fill="#111827">३१</text>
    <text x="74" y="389" fill="#c8d0d8">१</text>
    <text x="114" y="389" fill="#c8d0d8">२</text>
    <text x="154" y="389" fill="#c8d0d8">३</text>
    <text x="194" y="389" fill="#c8d0d8">४</text>
    <text x="234" y="389" fill="#c8d0d8">५</text>
    <text x="274" y="389" fill="#c8d0d8">६</text>
  </g>
</svg>
